<?xml version="1.0" encoding="UTF-8"?>
<svg id="_レイヤー_2" data-name="レイヤー 2" xmlns="http://www.w3.org/2000/svg" viewBox="0 0 27.48 35.73">
  <defs>
    <style>
      .cls-1 {
        fill: none;
        stroke: #3c4e43;
        stroke-miterlimit: 10;
      }
    </style>
  </defs>
  <g id="_制作レイヤー" data-name="制作レイヤー">
    <g>
      <path class="cls-1" d="M2.05,9.02C.06,14.48-.15,18.63,2.21,20.75c2.39,2.15,5.98.91,8.38,3.06,2.09,1.88,2.41,5.57.17,11.74"/>
      <path class="cls-1" d="M9.2,4.89c-1.5,2.65-2.93,6.17-1.59,8.81,1.82,3.6,7.27,2.54,10.13,5.98,1.51,1.82,2.51,5.14.12,11.77"/>
      <path class="cls-1" d="M17.05.36c-1.54,1.47-3.45,3.7-3.3,5.85.3,4.3,8.48,3.78,11.84,8.94,1.31,2.02,2.27,5.48.12,11.77"/>
      <path class="cls-1" d="M7.61,8.39c3.63-3.59,2.99-6.11,1.52-3.36"/>
    </g>
  </g>
</svg>