<?xml version="1.0" encoding="UTF-8"?>
<svg id="_レイヤー_2" data-name="レイヤー 2" xmlns="http://www.w3.org/2000/svg" viewBox="0 0 660.49 459.64">
  <defs>
    <style>
      .cls-1 {
        fill: none;
        stroke: #2a382f;
        stroke-linecap: round;
        stroke-linejoin: round;
        stroke-width: 20px;
      }
    </style>
  </defs>
  <g id="_レイヤー_3" data-name="レイヤー 3">
    <path class="cls-1" d="M10,70.15c53.37,0,53.37-60.14,106.75-60.14s56.02,60.14,106.75,60.14c53.37,0,48.19-60.14,106.75-60.14s53.37,60.14,106.75,60.14,47.75-59.61,104.98-60.14c58.53-.54,55.14,60.14,108.52,60.14"/>
    <path class="cls-1" d="M10,259.9c53.37,0,53.37-60.14,106.75-60.14s56.02,60.14,106.75,60.14c53.37,0,48.19-60.14,106.75-60.14s53.37,60.14,106.75,60.14,47.75-59.61,104.98-60.14c58.53-.54,55.14,60.14,108.52,60.14"/>
    <path class="cls-1" d="M10,449.64c53.37,0,53.37-60.14,106.75-60.14s56.02,60.14,106.75,60.14c53.37,0,48.19-60.14,106.75-60.14s53.37,60.14,106.75,60.14,47.75-59.61,104.98-60.14c58.53-.54,55.14,60.14,108.52,60.14"/>
  </g>
</svg>
