<svg xmlns="http://www.w3.org/2000/svg" style="display: none;">

<!-- ホームアイコン -->
<symbol id="icon-home" viewBox="0 0 24 24" fill="none" stroke="currentColor" stroke-width="1.5" stroke-linecap="round" stroke-linejoin="round">
  <path d="m2.25 12 8.954-8.955c.44-.439 1.152-.439 1.591 0L21.75 12M4.5 9.75v10.125c0 .621.504 1.125 1.125 1.125H9.75v-4.875c0-.621.504-1.125 1.125-1.125h2.25c.621 0 1.125.504 1.125 1.125V21h4.125c.621 0 1.125-.504 1.125-1.125V9.75M8.25 21h8.25" />
</symbol>

<!-- チェックアイコン -->
<symbol id="icon-check" viewBox="0 0 24 24" fill="none" stroke="currentColor" stroke-width="1.5" stroke-linecap="round" stroke-linejoin="round">
  <path d="M9 12.75 11.25 15 15 9.75M21 12a9 9 0 1 1-18 0 9 9 0 0 1 18 0Z" />
</symbol>

<!-- ツールアイコン -->
<symbol id="icon-tool" viewBox="0 0 24 24" fill="none" stroke="currentColor" stroke-width="1.5" stroke-linecap="round" stroke-linejoin="round">
  <path d="M11.42 15.17 17.25 21A2.652 2.652 0 0 0 21 17.25l-5.877-5.877M11.42 15.17l2.496-3.03c.317-.384.74-.626 1.208-.766M11.42 15.17l-4.655 5.653a2.548 2.548 0 1 1-3.586-3.586l6.837-5.63m5.108-.233c.55-.164 1.163-.188 1.743-.14a4.5 4.5 0 0 0 4.486-6.336l-3.276 3.277a3.004 3.004 0 0 1-2.25-2.25l3.276-3.276a4.5 4.5 0 0 0-6.336 4.486c.091 1.076-.071 2.264-.904 2.95l-.102.085m-1.745 1.437L5.909 7.5H4.5L2.25 3.75l1.5-1.5L7.5 4.5v1.409l4.26 4.26m-1.745 1.437 1.745-1.437m6.615 8.206L15.75 15.75M4.867 19.125h.008v.008h-.008v-.008Z" />
</symbol>

<!-- メッセージアイコン -->
<symbol id="icon-message" viewBox="0 0 24 24" fill="none" stroke="currentColor" stroke-width="1.5" stroke-linecap="round" stroke-linejoin="round">
  <path d="M20.25 8.511c.884.284 1.5 1.128 1.5 2.097v4.286c0 1.136-.847 2.1-1.98 2.193-.34.027-.68.052-1.02.072v3.091l-3-3c-1.354 0-2.694-.055-4.02-.163a2.115 2.115 0 0 1-.825-.242m9.345-8.334a2.126 2.126 0 0 0-.476-.095 48.64 48.64 0 0 0-8.048 0c-1.131.094-1.976 1.057-1.976 2.192v4.286c0 .837.46 1.58 1.155 1.951m9.345-8.334V6.637c0-1.621-1.152-3.026-2.76-3.235A48.455 48.455 0 0 0 11.25 3c-2.115 0-4.198.137-6.24.402-1.608.209-2.76 1.614-2.76 3.235v6.226c0 1.621 1.152 3.026 2.76 3.235.577.075 1.157.14 1.74.194V21l4.155-4.155" />
</symbol>

<!-- 右矢印アイコン -->
<symbol id="icon-arrow-right" viewBox="0 0 24 24" fill="none" stroke="currentColor" stroke-width="1.5" stroke-linecap="round" stroke-linejoin="round">
  <path d="M17.25 8.25 21 12m0 0-3.75 3.75M21 12H3" />
</symbol>

<!-- メールアイコン -->
<symbol id="icon-mail" viewBox="0 0 24 24" fill="none" stroke="currentColor" stroke-width="1.5" stroke-linecap="round" stroke-linejoin="round">
  <path d="M21.75 6.75v10.5a2.25 2.25 0 0 1-2.25 2.25h-15a2.25 2.25 0 0 1-2.25-2.25V6.75m19.5 0A2.25 2.25 0 0 0 19.5 4.5h-15a2.25 2.25 0 0 0-2.25 2.25m19.5 0v.243a2.25 2.25 0 0 1-1.07 1.916l-7.5 4.615a2.25 2.25 0 0 1-2.36 0L3.32 8.91a2.25 2.25 0 0 1-1.07-1.916V6.75" />
</symbol>

<!-- 定規アイコン -->
<symbol id="icon-ruler" viewBox="0 0 24 24" fill="none" stroke="currentColor" stroke-width="1.5" stroke-linecap="round" stroke-linejoin="round">
  <path d="M9.53 16.122a3 3 0 0 0-5.78 1.128 2.25 2.25 0 0 1-2.4 2.245 4.5 4.5 0 0 0 8.4-2.245c0-.399-.078-.78-.22-1.128Zm0 0a15.998 15.998 0 0 0 3.388-1.62m-5.043-.025a15.994 15.994 0 0 1 1.622-3.395m3.42 3.42a15.995 15.995 0 0 0 4.764-4.648l3.876-5.814a1.151 1.151 0 0 0-1.597-1.597L14.146 6.32a15.996 15.996 0 0 0-4.649 4.763m3.42 3.42a6.776 6.776 0 0 0-3.42-3.42" />
</symbol>

<!-- サイクルアイコン -->
<symbol id="icon-cycle" viewBox="0 0 24 24" fill="none" stroke="currentColor" stroke-width="1.5" stroke-linecap="round" stroke-linejoin="round">
  <path d="M16.023 9.348h4.992v-.001M2.985 19.644v-4.992m0 0h4.992m-4.993 0 3.181 3.183a8.25 8.25 0 0 0 13.803-3.7M4.031 9.865a8.25 8.25 0 0 1 13.803-3.7l3.181 3.182m0-4.991v4.99" />
</symbol>

<!-- 芽アイコン (既存のものを維持) -->
<symbol id="icon-sprout" viewBox="0 0 24 24" fill="none" stroke="currentColor" stroke-width="2" stroke-linecap="round" stroke-linejoin="round">
  <path d="M7 20h10"/>
  <path d="M10 20c5.5-2.5.8-6.4 3-10"/>
  <path d="M9.5 9.4c1.1.8 1.8 2.2 2.3 3.7-2 .4-3.5.4-4.8-.3-1.2-.6-2.3-1.9-3-4.2 2.8-.5 4.4 0 5.5.8z"/>
  <path d="M14.1 6a7 7 0 0 0-1.1 4c1.9-.1 3.3-.6 4.3-1.4 1-1 1.6-2.3 1.7-4.6-2.7.1-4 1-4.9 2z"/>
</symbol>

<!-- Instagram アイコン -->
<symbol id="icon-instagram" viewBox="0 0 24 24" fill="none" stroke="currentColor" stroke-width="2" stroke-linecap="round" stroke-linejoin="round">
  <rect x="2" y="2" width="20" height="20" rx="5" ry="5"></rect>
  <path d="M16 11.37A4 4 0 1 1 12.63 8 4 4 0 0 1 16 11.37z"></path>
  <line x1="17.5" y1="6.5" x2="17.51" y2="6.5"></line>
</symbol>

<!-- LINE アイコン -->
<symbol id="icon-line" viewBox="0 0 24 24" fill="none" stroke="currentColor" stroke-width="2" stroke-linecap="round" stroke-linejoin="round">
  <path d="M7.9 20A9 9 0 1 0 4 16.1L2 22Z"/>
  <path d="M8 12h.01"/>
  <path d="M12 12h.01"/>
  <path d="M16 12h.01"/>
</symbol>

</svg>
