<?xml version="1.0" encoding="UTF-8"?>
<svg id="_レイヤー_2" data-name="レイヤー 2" xmlns="http://www.w3.org/2000/svg" viewBox="0 0 926.17 586.46">
  <defs>
    <style>
      .cls-1 {
        fill: none;
        stroke: #231815;
        stroke-linecap: round;
        stroke-miterlimit: 10;
        stroke-width: 20px;
      }
    </style>
  </defs>
  <g id="_レイヤー_2-2" data-name="レイヤー 2">
    <path class="cls-1" d="M264.92,72.86c-3.63,2.53-7.9,3.96-12.32,4.12-20.39.73-45.42-.26-73.4-5.63-34.55-6.62-63.19-17.9-85.17-28.9-11.44-5.73-25.36-.93-30.94,10.58-9.55,19.72-18.88,42.04-27.01,66.91-17.98,55.02-24.42,105.09-26.06,145-.42,10.15,5.9,19.33,15.49,22.66,14.06,4.87,29.58,11.24,45.91,19.63,17.92,9.21,33.38,19.08,46.44,28.58,8.79,6.39,11.69,18.01,7.3,27.94-7.05,15.96-6.9,34.2,1.04,49.49,8.45,16.28,22.96,23.86,33.07,27.32,6.58,2.25,11.88,7.27,14.3,13.8,3.83,10.33,11.72,25.21,27.72,36.63,13.7,9.77,27.79,13.05,37.98,14.01,7.83.74,14.72,5.4,18.33,12.38,4.57,8.85,12.31,19.47,24.97,25.73,22.16,10.96,47.67,2.77,47.69,2.7,0,0,0-.02.01-.05,0-.03.02-.08.02-.08.04-.05,22.26,23.86,37.08,29.24,14.43,5.23,38.89-.93,83.04-48.59h0c27.89,27.92,66.49,35.9,94.53,21.2,11.51-6.04,19.31-14.88,24.45-22.8s13.63-11.56,22.52-10.37c7.21.97,16.07.89,25.47-2.16,17-5.52,30.56-19.07,37.7-36.61,3.61-8.86,12.32-14.62,21.89-14.33,6.61.2,14.42-.64,22.57-3.84,18.71-7.35,28.35-22.87,33.06-34.05,2.97-7.06,9.39-12.03,16.91-13.49,13.1-2.55,24.66-10.55,31.31-22.24,6.24-10.96,7.44-23.93,3.92-35.79-3.35-11.28,2.45-23.26,13.33-27.74,34.4-14.15,68.81-28.31,103.21-42.46,8.13-3.34,13.64-11.02,14.22-19.79,1.8-27.43.78-67-12.77-111.87-13.81-45.74-35.52-79.98-53.11-102.57-7.04-9.05-19.69-11.56-29.62-5.82-14.78,8.55-31.68,17.25-50.67,25.34-21.71,9.25-42.09,15.99-60.31,20.94-6.86,1.87-14.2.47-19.88-3.82-23.29-17.61-58.18-39.61-104.45-55.11-55.26-18.52-103.41-19.95-133.4-18.55-25.43.94-61.61,5.07-102.48,19.44-35.91,12.62-63.96,29.1-83.9,43.03Z"/>
    <path class="cls-1" d="M782.58,343.45c-46.9-46.48-121.71-111.93-211.14-159.02-38.74-20.4-75.84-36.08-109.87-48.22-9.81-3.5-20.55-3.43-30.29.27-33.38,12.68-59.37,26.35-78.05,37.35-46.94,27.66-73.37,53.62-104.25,45.94-12.75-3.17-22.3-11.1-28.99-18.56-2.49-2.78-4.28-6.11-5.21-9.73-2.39-9.29-4.09-21.05-2.91-34.44,4.13-46.59,39.9-74.56,47.71-80.39"/>
    <path class="cls-1" d="M129.73,351.4c2.01-3.38,20.39-27.93,47.71-32.69,20.14-3.51,35.82,4.39,40.64,7.07,3.19,2,7.15,5.08,10.6,9.72,5.68,7.65,7.38,16.05,7.67,22.53.26,5.84-1.81,11.54-5.65,15.94-20.11,23.1-40.22,46.2-60.34,69.3"/>
    <path class="cls-1" d="M252.52,505.12l66.67-82.31c3.58-4.42,5.45-10.02,5.11-15.71-1.27-21.12-14.01-39.84-32.91-47.75-18.24-7.63-39.71-4.14-55.66,8.83"/>
    <path class="cls-1" d="M330.26,545.76l63.38-71.61c3.5-3.96,5.6-9,5.77-14.28.56-17.2-7.78-33.71-22.33-43.09-15.94-10.27-36.69-10.28-53.01,0"/>
    <path class="cls-1" d="M450.41,526.33c.33-1.28,6.33-25.9-11.48-44.17-16.37-16.79-38.58-13.59-40.64-13.25"/>
    <line class="cls-1" x1="553.12" y1="303.28" x2="738.65" y2="414.59"/>
    <line class="cls-1" x1="498.07" y1="361.36" x2="664.79" y2="464.3"/>
    <line class="cls-1" x1="464.88" y1="441.75" x2="581.54" y2="514.63"/>
  </g>
</svg>