<?xml version="1.0" encoding="UTF-8"?>
<svg id="_レイヤー_2" data-name="レイヤー 2" xmlns="http://www.w3.org/2000/svg" viewBox="0 0 103.45 103.45">
  <defs>
    <style>
      .cls-1 {
        fill: none;
        stroke: #231815;
        stroke-linecap: round;
        stroke-linejoin: round;
        stroke-width: 5px;
      }
    </style>
  </defs>
  <g id="_レイヤー_2-2" data-name="レイヤー 2">
    <path class="cls-1" d="M10.17,3.83l89.45,89.45c2.83,2.83.83,7.67-3.18,7.67H7c-2.48,0-4.5-2.01-4.5-4.5V7C2.5,3,7.34.99,10.17,3.83Z"/>
    <polygon class="cls-1" points="25.19 48.55 55.6 78.95 25.19 78.95 25.19 48.55"/>
    <path class="cls-1" d="M13.25,22.36s-10.45.29-10.45,0"/>
    <path class="cls-1" d="M13.25,38.39s-10.45.29-10.45,0"/>
    <path class="cls-1" d="M13.25,54.42s-10.45.29-10.45,0"/>
    <path class="cls-1" d="M13.25,70.45s-10.45.29-10.45,0"/>
    <path class="cls-1" d="M13.25,86.49s-10.45.29-10.45,0"/>
  </g>
</svg>